<svg id="footer" xmlns="http://www.w3.org/2000/svg" viewBox="0 0 323.15 323.15"><defs><style>.cls-1{fill:#022940;}.cls-2{fill:#fff;}</style></defs><title>Plan de travail 1</title><g id="mail"><circle class="cls-1" cx="161.57" cy="161.57" r="161.57"/><path class="cls-2" d="M161.25,227.13q-37.22,0-74.42,0c-11.49,0-18.79-7.31-18.8-18.89q0-46.74,0-93.5c0-11.37,7.34-18.7,18.64-18.7q74.9,0,149.79,0c11.29,0,18.63,7.32,18.64,18.71q.06,46.74,0,93.5c0,11.57-7.32,18.88-18.81,18.88Zm.6-122.1q-36.89,0-73.78,0a18.61,18.61,0,0,0-5.37.66c-2.84.89-4.93,3-5.13,6s-1.65,6,1.57,8.55q40.27,31.3,80.41,62.79c1.57,1.23,2.57,1.18,4.11,0q40.17-31.47,80.38-62.85a4.3,4.3,0,0,0,1.73-2.45c.74-7.78-1.36-12.75-10.78-12.7C210.61,105.11,186.23,105,161.85,105ZM84.46,217.78H238.71l-47.77-44.6-24.86,19.43c-4,3.09-5,3.09-9,0-8.25-6.43-16.49-12.87-24.9-19.44ZM125,167.48,77.63,130.55v81.17Zm120.77-37.07L198.23,167.5l47.49,44.38Z"/></g></svg>