<svg id="footer" xmlns="http://www.w3.org/2000/svg" viewBox="0 0 323.15 323.15"><defs><style>.cls-1{fill:#022940;}</style></defs><title>Plan de travail 1 copie</title><g id="phone"><path class="cls-1" d="M208.47,61.55c2.77,1,5.47,2,7.53,4.25a14.9,14.9,0,0,1,3.76,10.57q0,40.92,0,81.85,0,44.34,0,88.69c0,5.87-2.2,10.57-7.64,13.2a14.31,14.31,0,0,1-6,1.41q-44.55.14-89.09.05c-7.67,0-13.35-5.82-13.63-13.69,0-.39,0-.78,0-1.17q0-85.17,0-170.34c0-6.05,2.33-10.72,7.86-13.51a32.81,32.81,0,0,1,3.43-1.31Zm1.63,175V83.11H113v153.4ZM154.9,248a6.68,6.68,0,1,0,13.35.09A6.68,6.68,0,1,0,154.9,248Zm6.88-176.72H147.73c-1.14,0-2.09.51-1.84,1.68a2.64,2.64,0,0,0,1.83,1.43,21.91,21.91,0,0,0,3.89.07q11.71,0,23.42,0c1.19,0,2.35-.08,2.28-1.66-.06-1.39-1.14-1.53-2.26-1.53Z"/><path class="cls-1" d="M161.57,8a153.58,153.58,0,0,1,108.6,262.17A153.58,153.58,0,0,1,53,53,152.55,152.55,0,0,1,161.57,8m0-8A161.58,161.58,0,1,0,323.15,161.57,161.57,161.57,0,0,0,161.57,0Z"/></g></svg>