<svg id="Calque_1" data-name="Calque 1" xmlns="http://www.w3.org/2000/svg" viewBox="0 0 291.23 255.9"><defs><style>.cls-1{fill:#9fc13b;}</style></defs><title>webdesign</title><path class="cls-1" d="M145.38,255.9H6.89c-6.86,0-6.88,0-6.88-7Q0,136,0,23c0-1.5,0-3,.09-4.5C.84,7.05,8.06.05,19.56,0q126-.08,252,0c12.48,0,19.57,7.57,19.62,20.85.1,32.16,0,64.33,0,96.49V248.88c0,7,0,7-6.84,7ZM281.58,44.62c0-9.17.18-18.33-.08-27.47-.13-4.38-2.95-6.9-7.35-7.42a33.19,33.19,0,0,0-4-.15h-249c-1.66,0-3.73-.44-4.9.36-2.43,1.66-6.06,3.9-6.22,6.11-.69,9.54-.29,19.15-.29,27.72l-.06,3-.15,2.3V239.78c0,6.56,0,6.57,6.55,6.57q129.51,0,259,0c6.54,0,6.56,0,6.56-6.54V52.54"/><path class="cls-1" d="M31.14,149.59c0-19.66,0-39.32,0-59C31.17,79.94,36,75,46.7,74.91q37.5-.14,75,0c10.1,0,15.44,5.35,15.47,15.55q.14,59.49,0,119c0,10.61-6.82,16.57-17,15.54-2.93-.3-5.43-1.31-5.38-4.67s2.28-4.39,5.39-4.57c7.17-.4,7.47-.77,7.47-8q0-57.74,0-115.48c0-7.5-.6-8.11-7.88-8.12q-36,0-72,0c-6.36,0-7.67,1.17-7.67,7.57q-.07,58.49,0,117c0,5.66,1.29,6.9,7.14,7,3.25.07,5.94,1,6,4.49.1,3.91-3,4.68-6.28,4.79-9.93.36-15.79-5-15.83-14.93C31.09,189.92,31.15,169.76,31.14,149.59Z"/><path class="cls-1" d="M207.29,115c-12.31,0-24.63.07-36.94,0-11.12-.08-16.14-5.13-16.33-16.2-.05-2.83-.07-5.66,0-8.49.28-10.18,5.35-15.34,15.58-15.4,19.3-.12,38.6,0,57.91,0,6,0,12-.11,18,0,9.39.24,14.4,5.34,14.57,14.66.06,3.49.07,7,0,10.48-.17,9.63-5.16,14.79-14.83,14.91-12.64.16-25.29,0-37.94,0Zm-.52-9.26h30c14.61,0,14.64,1.93,14.36-15.39-.07-4.25-2.06-6.29-6.52-6.28q-37.47.14-74.94,0c-4.11,0-6.26,1.61-6.12,5.91.11,3,0,6,0,9,.08,5.7,1,6.7,6.75,6.73C182.46,105.8,194.62,105.77,206.77,105.77Z"/><path class="cls-1" d="M207,145.9c-15.82,0-31.64-.06-47.47,0-3.56,0-5.58-.62-5.58-4.87s2.33-4.76,5.73-4.76c31.64.06,63.29.12,94.93,0,4.45,0,5.81,1.41,5.64,5.74-.14,3.63-1.95,3.93-4.79,3.91C239.27,145.86,223.11,145.89,207,145.9Z"/><path class="cls-1" d="M206.59,172.14c-15.83,0-31.66-.07-47.49.05-3.42,0-5.21-.64-5.19-4.61s1.79-4.75,5.21-4.74q48,.1,96,0c3.49,0,5.06.89,5.1,4.77s-1.69,4.61-5.12,4.58C238.91,172.06,222.75,172.14,206.59,172.14Z"/><path class="cls-1" d="M207.66,189.49c15.8,0,31.61.07,47.41-.05,3.4,0,5.12.56,5.13,4.59,0,4.18-2.05,4.44-5.27,4.43q-47.91-.08-95.82,0c-3.38,0-5.18-.59-5.2-4.59,0-4.19,2.14-4.46,5.34-4.45C175.38,189.53,191.52,189.49,207.66,189.49Z"/><path class="cls-1" d="M215.45,216.35c1.68,8.21,1.33,8.67-6.68,8.68q-24.68,0-49.34,0c-5.06,0-6.33-1.47-5.24-6.35.25-1.13,2-2.75,3.07-2.76,19.1-.12,38.21,0,57.31,0C214.87,215.94,215.16,216.2,215.45,216.35Z"/><path class="cls-1" d="M35.73,26.78a9.24,9.24,0,0,1-8.86,9,9.43,9.43,0,0,1-9.12-9.33,9.2,9.2,0,0,1,9.19-8.65A9,9,0,0,1,35.73,26.78Z"/><path class="cls-1" d="M79.58,35.78a9.14,9.14,0,0,1-8.89-8.91,8.91,8.91,0,1,1,17.81,0A9.12,9.12,0,0,1,79.58,35.78Z"/><path class="cls-1" d="M62,26.83a8.94,8.94,0,0,1-8.76,9,9.25,9.25,0,0,1-9-8.87,9,9,0,0,1,9.14-9.09A8.69,8.69,0,0,1,62,26.83Z"/><path class="cls-1" d="M35.67,48.69a4.67,4.67,0,0,1-4.48,4.56,4.77,4.77,0,0,1-4.6-4.72,4.64,4.64,0,0,1,4.64-4.37A4.53,4.53,0,0,1,35.67,48.69Z"/><path class="cls-1" d="M18.63,48.69a4.69,4.69,0,0,1-4.48,4.56,4.77,4.77,0,0,1-4.61-4.72,4.65,4.65,0,0,1,4.65-4.37A4.53,4.53,0,0,1,18.63,48.69Z"/><path class="cls-1" d="M53.33,48.69a4.69,4.69,0,0,1-4.48,4.56,4.77,4.77,0,0,1-4.61-4.72,4.65,4.65,0,0,1,4.65-4.37A4.53,4.53,0,0,1,53.33,48.69Z"/><path class="cls-1" d="M71,48.69a4.67,4.67,0,0,1-4.48,4.56,4.77,4.77,0,0,1-4.6-4.72,4.64,4.64,0,0,1,4.64-4.37A4.53,4.53,0,0,1,71,48.69Z"/><path class="cls-1" d="M88.64,48.69a4.69,4.69,0,0,1-4.48,4.56,4.79,4.79,0,0,1-4.61-4.72,4.65,4.65,0,0,1,4.65-4.37A4.53,4.53,0,0,1,88.64,48.69Z"/><path class="cls-1" d="M106.29,48.69a4.67,4.67,0,0,1-4.47,4.56,4.77,4.77,0,0,1-4.61-4.72,4.64,4.64,0,0,1,4.64-4.37A4.52,4.52,0,0,1,106.29,48.69Z"/><path class="cls-1" d="M124,48.69a4.68,4.68,0,0,1-4.48,4.56,4.79,4.79,0,0,1-4.61-4.72,4.66,4.66,0,0,1,4.65-4.37A4.53,4.53,0,0,1,124,48.69Z"/><path class="cls-1" d="M142.05,48.69a4.67,4.67,0,0,1-4.47,4.56A4.77,4.77,0,0,1,133,48.53a4.64,4.64,0,0,1,4.64-4.37A4.52,4.52,0,0,1,142.05,48.69Z"/><path class="cls-1" d="M159.71,48.69a4.68,4.68,0,0,1-4.48,4.56,4.79,4.79,0,0,1-4.61-4.72,4.66,4.66,0,0,1,4.65-4.37A4.53,4.53,0,0,1,159.71,48.69Z"/><path class="cls-1" d="M177.36,48.69a4.67,4.67,0,0,1-4.47,4.56,4.77,4.77,0,0,1-4.61-4.72,4.64,4.64,0,0,1,4.64-4.37A4.51,4.51,0,0,1,177.36,48.69Z"/><path class="cls-1" d="M195,48.69a4.67,4.67,0,0,1-4.48,4.56,4.77,4.77,0,0,1-4.6-4.72,4.64,4.64,0,0,1,4.64-4.37A4.53,4.53,0,0,1,195,48.69Z"/><path class="cls-1" d="M212.68,48.69a4.69,4.69,0,0,1-4.48,4.56,4.77,4.77,0,0,1-4.61-4.72,4.65,4.65,0,0,1,4.65-4.37A4.53,4.53,0,0,1,212.68,48.69Z"/><path class="cls-1" d="M230.33,48.69a4.67,4.67,0,0,1-4.47,4.56,4.77,4.77,0,0,1-4.61-4.72,4.64,4.64,0,0,1,4.64-4.37A4.52,4.52,0,0,1,230.33,48.69Z"/><path class="cls-1" d="M247,48.69a4.69,4.69,0,0,1-4.48,4.56,4.77,4.77,0,0,1-4.61-4.72,4.65,4.65,0,0,1,4.65-4.37A4.53,4.53,0,0,1,247,48.69Z"/><path class="cls-1" d="M264.65,48.69a4.67,4.67,0,0,1-4.48,4.56,4.77,4.77,0,0,1-4.6-4.72,4.64,4.64,0,0,1,4.64-4.37A4.53,4.53,0,0,1,264.65,48.69Z"/><path class="cls-1" d="M282.31,48.69a4.69,4.69,0,0,1-4.48,4.56,4.79,4.79,0,0,1-4.61-4.72,4.65,4.65,0,0,1,4.65-4.37A4.53,4.53,0,0,1,282.31,48.69Z"/><path class="cls-1" d="M69.43,220.44A4.68,4.68,0,0,1,65,225a4.77,4.77,0,0,1-4.61-4.72A4.65,4.65,0,0,1,65,215.9,4.54,4.54,0,0,1,69.43,220.44Z"/><path class="cls-1" d="M87.08,220.44A4.66,4.66,0,0,1,82.61,225,4.77,4.77,0,0,1,78,220.27a4.64,4.64,0,0,1,4.64-4.37A4.53,4.53,0,0,1,87.08,220.44Z"/><path class="cls-1" d="M104.74,220.44a4.67,4.67,0,0,1-4.48,4.55,4.78,4.78,0,0,1-4.61-4.72,4.65,4.65,0,0,1,4.65-4.37A4.54,4.54,0,0,1,104.74,220.44Z"/></svg>