<svg id="Calque_1" data-name="Calque 1" xmlns="http://www.w3.org/2000/svg" viewBox="0 0 340.96 264.23"><defs><style>.cls-1{fill:#9fc13b;}</style></defs><title>illsutration</title><path class="cls-1" d="M143.08,32C93.3,42.74,57.22,70.08,36.8,117c-5.83,13.39-8.63,27.57-9.91,42.09-.29,3.23,1.06,4.16,3.95,4.12,5.17-.06,10.34,0,15.5,0,4.28,0,6.43,2.07,6.42,6.44q-.06,20,0,40c0,4.41-2.07,6.4-6.4,6.39-13.33,0-26.66,0-40,0-4.3,0-6.4-2.25-6.39-6.55,0-13.16,0-26.33,0-39.5,0-4.53,2.38-6.72,6.83-6.75,3.83,0,7.66-.1,11.5,0,2.71.06,3.71-1.06,3.94-3.83C26.47,108,51.8,70,95.85,44.08a133.36,133.36,0,0,1,43.86-15.95c3.34-.61,4.57-1.79,4.48-5.09-.16-5.49,0-11,0-16.49-.06-4.41,2.18-6.5,6.38-6.51q20-.09,40,0c4.28,0,6.36,2.18,6.27,6.56-.11,5.33.29,10.69-.11,16-.32,4.28,1.56,6,5.35,6.79a137.16,137.16,0,0,1,47.81,20.56c30,20.27,50.48,47.46,59.49,82.73,2.18,8.51,3.19,17.32,4.43,26,.47,3.26,1.57,4.71,5,4.57,5.15-.22,10.33-.08,15.49,0,4.46.05,6.71,2.22,6.68,6.82q-.09,19.74,0,39.49c0,4.4-2.12,6.47-6.39,6.48q-20,0-40,0c-4.24,0-6.37-1.94-6.32-6.44.12-13.33.1-26.66,0-40,0-4.5,2.27-6.32,6.44-6.37,3.17,0,6.35-.22,9.5,0,3.92.31,5.32-1,5-5.1-1.49-16.39-5.3-32.13-12.41-47-18.28-38.22-48.26-62.84-88.36-75.46-11.42-3.59-11.52-3.29-11.6,8.87,0,7.23-.9,8.17-8,8.19q-18.5.08-37,0c-6.5,0-7.56-1.16-7.64-7.58,0-3.67-.09-7.33-.19-11A9.26,9.26,0,0,0,143.08,32ZM170.87,43.2c4.17,0,8.33-.09,12.49,0,2.63.07,4-.68,4-3.64q-.18-13,0-26c0-3-1.21-4.08-4.18-4-8.33.13-16.66.12-25,0-3.07,0-4.62.91-4.57,4.27.13,8.49.11,17,0,25.48,0,2.78,1,3.94,3.79,3.87C161.88,43.11,166.38,43.19,170.87,43.2ZM314.42,206.32c4.16,0,8.32-.14,12.46,0,3.42.15,4.71-1.11,4.63-4.62q-.3-12,0-23.92c.07-3.57-1.07-5.15-4.83-5.07-8.14.16-16.28.13-24.42,0-3.15-.06-4.55,1-4.5,4.28q.17,12.71,0,25.42c-.05,3.15,1.34,4,4.22,3.91C306.11,206.2,310.27,206.32,314.42,206.32Zm-287.79,0c4.33,0,8.68.27,13-.16C40.89,206,43,204,43,202.81c.29-8.64.12-17.3.18-25.95,0-2.94-1.19-4.14-4.19-4.1-8.32.12-16.64.09-25,0-3.11,0-4.56,1.19-4.52,4.43q.15,12.48,0,24.95c0,3,1.16,4.24,4.12,4.18C18,206.25,22.31,206.31,26.63,206.31Z"/><path class="cls-1" d="M170.88,72.72c9.4,12,18.32,23.41,27.2,34.82,10.22,13.14,20.27,26.41,30.67,39.4,2.53,3.16,2.3,5.08-.1,8.07-11.17,13.9-21.9,28.2-28.91,44.7-2.66,6.27-3.52,13.34-4.88,20.11-.89,4.47,1.3,6.15,5.88,6.14,4.09,0,8.47.29,12.21,1.76,8.25,3.23,12.12,10,12.63,18.72.24,4.16-.09,8.35.21,12.49s-1.55,5.31-5.55,5.3c-29.83-.14-59.66-.08-89.49-.08-3.83,0-7.68.19-11.49-.11-1.29-.1-3.55-1.43-3.54-2.19,0-7.3-.6-14.86,1-21.84,2.21-9.34,10.46-13.95,21.64-14.17,7.84-.16,7.74-.16,7.86-8,.16-10-4-18.59-9-26.58-7.93-12.67-16.68-24.82-25.32-37-1.76-2.48-2-4-.09-6.49q28-35.77,55.86-71.68C168.49,75.07,169.46,74.21,170.88,72.72Zm-48.81,77.62c7.19,10.72,14.31,20.57,20.61,30.91,7.55,12.4,14.4,25.22,13,40.57-.31,3.23,1.5,4,4.24,4,7,0,14-.11,21,.05,3.45.08,4.36-1.23,4.65-4.65.59-6.71,1-13.69,3.24-20,6-17.11,16.38-31.86,27.56-46,2.72-3.42,2.51-5.6-.08-8.88C203,129.72,190.05,112.85,177,96.07a42.05,42.05,0,0,0-4.19-3.86c0,10.6.09,19.73-.1,28.86,0,1.28-1.41,2.54-2.17,3.81-.74-1.26-2.07-2.51-2.11-3.79-.2-7.65-.08-15.31-.12-23,0-1.51-.22-3-.34-4.53l-1.37-.4Zm3,94.71h62.36c3.5,0,7-.2,10.49.13,1.28.11,2.44,1.47,3.66,2.26a15.13,15.13,0,0,1-3.44,2.07,14.56,14.56,0,0,1-4,.11c-21.34,0-42.67-.06-64,.11-1.62,0-3.23,1.7-4.85,2.61,1.56.76,3.11,2.14,4.69,2.18,9.49.2,19,.1,28.49.1,17.34,0,34.67-.14,52,.09,4.53.06,5.74-1.53,5.57-5.8-.39-9.47-4-13.34-13.48-13.37-21.34-.06-42.67,0-64,0a38,38,0,0,0-4,.21C129.68,236.26,127.1,239.33,125.07,245.05Z"/><path class="cls-1" d="M187.26,161a17,17,0,0,1-16.93,16.76,17.21,17.21,0,0,1-16.62-16.61,16.78,16.78,0,1,1,33.55-.15Zm-16.91-11.8a11.74,11.74,0,1,0,12,11.83A11.46,11.46,0,0,0,170.35,149.18Z"/></svg>